solid stanford_bunny.stl
facet normal 0.038089 -0.226710 -0.973217
  outer loop
    vertex 76.172287 32.819824 63.979397
    vertex 75.149033 12.759274 68.612442
    vertex 70.949677 32.945320 63.745766
  endloop
endfacet
facet normal -0.020317 -0.996499 -0.081103
  outer loop
    vertex 77.597305 34.037582 48.660000
    vertex 76.172287 32.819824 63.979397
    vertex 70.949677 32.945320 63.745766
  endloop
endfacet
facet normal -0.168956 -0.974894 -0.145037
  outer loop
    vertex 70.949677 32.945320 63.745766
    vertex 63.381554 35.268406 56.946953
    vertex 77.597305 34.037582 48.660000
  endloop
endfacet
facet normal 0.202854 -0.856202 0.475152
  outer loop
    vertex 77.597305 34.037582 48.660000
    vertex 63.381554 35.268406 56.946953
    vertex 56.449539 31.047863 52.301178
  endloop
endfacet
facet normal 0.210987 -0.788013 0.578376
  outer loop
    vertex 77.597305 34.037582 48.660000
    vertex 56.449539 31.047863 52.301178
    vertex 67.665939 26.813101 42.439838
  endloop
endfacet
facet normal 0.465760 -0.850543 0.244223
  outer loop
    vertex 76.999832 28.932632 32.020668
    vertex 77.597305 34.037582 48.660000
    vertex 67.665939 26.813101 42.439838
  endloop
endfacet
facet normal 0.236389 -0.971556 0.014126
  outer loop
    vertex 54.573593 23.466194 31.338671
    vertex 76.999832 28.932632 32.020668
    vertex 67.665939 26.813101 42.439838
  endloop
endfacet
facet normal 0.238548 -0.964156 -0.116184
  outer loop
    vertex 76.999832 28.932632 32.020668
    vertex 54.573593 23.466194 31.338671
    vertex 71.423851 28.302773 25.799030
  endloop
endfacet
facet normal 0.642465 -0.564095 -0.518685
  outer loop
    vertex 76.999832 28.932632 32.020668
    vertex 71.423851 28.302773 25.799030
    vertex 80.861176 38.498238 26.400431
  endloop
endfacet
facet normal 0.809041 -0.504127 -0.302175
  outer loop
    vertex 84.622131 40.163963 33.691017
    vertex 76.999832 28.932632 32.020668
    vertex 80.861176 38.498238 26.400431
  endloop
endfacet
facet normal 0.881135 0.062196 -0.468757
  outer loop
    vertex 84.622131 40.163963 33.691017
    vertex 80.861176 38.498238 26.400431
    vertex 84.643982 49.544834 34.976780
  endloop
endfacet
facet normal 0.990610 -0.020827 0.135120
  outer loop
    vertex 84.622131 40.163963 33.691017
    vertex 84.643982 49.544834 34.976780
    vertex 82.946297 40.313576 46.000217
  endloop
endfacet
facet normal 0.993101 -0.076040 0.089267
  outer loop
    vertex 84.643982 49.544834 34.976780
    vertex 83.530746 47.283424 45.435280
    vertex 82.946297 40.313576 46.000217
  endloop
endfacet
facet normal 0.722716 -0.115831 -0.681370
  outer loop
    vertex 83.530746 47.283424 45.435280
    vertex 85.314774 40.616714 48.460880
    vertex 82.946297 40.313576 46.000217
  endloop
endfacet
facet normal 0.568084 -0.680388 -0.462982
  outer loop
    vertex 77.597305 34.037582 48.660000
    vertex 82.946297 40.313576 46.000217
    vertex 85.314774 40.616714 48.460880
  endloop
endfacet
facet normal 0.536353 -0.645607 -0.543615
  outer loop
    vertex 82.989799 35.600483 52.124329
    vertex 77.597305 34.037582 48.660000
    vertex 85.314774 40.616714 48.460880
  endloop
endfacet
facet normal 0.923955 -0.375665 0.071995
  outer loop
    vertex 85.314774 40.616714 48.460880
    vertex 85.780411 45.606819 68.523056
    vertex 82.989799 35.600483 52.124329
  endloop
endfacet
facet normal 0.722850 -0.637708 0.266113
  outer loop
    vertex 85.780411 45.606819 68.523056
    vertex 76.172287 32.819824 63.979397
    vertex 82.989799 35.600483 52.124329
  endloop
endfacet
facet normal 0.814312 -0.565686 -0.129982
  outer loop
    vertex 85.780411 45.606819 68.523056
    vertex 78.047935 34.499065 68.421860
    vertex 76.172287 32.819824 63.979397
  endloop
endfacet
facet normal 0.595351 -0.420680 0.684534
  outer loop
    vertex 77.511009 37.688404 70.848839
    vertex 78.047935 34.499065 68.421860
    vertex 85.780411 45.606819 68.523056
  endloop
endfacet
facet normal 0.369194 -0.114678 0.922250
  outer loop
    vertex 85.780411 45.606819 68.523056
    vertex 81.496643 48.265877 70.568573
    vertex 77.511009 37.688404 70.848839
  endloop
endfacet
facet normal 0.090816 -0.007834 0.995837
  outer loop
    vertex 77.511009 37.688404 70.848839
    vertex 81.496643 48.265877 70.568573
    vertex 68.295914 41.603836 71.720016
  endloop
endfacet
facet normal -0.027821 -0.279047 0.959874
  outer loop
    vertex 68.295914 41.603836 71.720016
    vertex 69.267746 38.123516 70.736412
    vertex 77.511009 37.688404 70.848839
  endloop
endfacet
facet normal -0.038655 -0.510345 0.859101
  outer loop
    vertex 69.267746 38.123516 70.736412
    vertex 71.797874 36.988743 70.176147
    vertex 77.511009 37.688404 70.848839
  endloop
endfacet
facet normal -0.155936 0.408744 0.899229
  outer loop
    vertex 77.511009 37.688404 70.848839
    vertex 71.797874 36.988743 70.176147
    vertex 78.159668 8.707561 84.134552
  endloop
endfacet
facet normal 0.820490 0.253300 0.512479
  outer loop
    vertex 79.511719 14.934387 78.892181
    vertex 77.511009 37.688404 70.848839
    vertex 78.159668 8.707561 84.134552
  endloop
endfacet
facet normal 0.742398 -0.518446 -0.424334
  outer loop
    vertex 78.159668 8.707561 84.134552
    vertex 72.147552 4.371895 78.913254
    vertex 79.511719 14.934387 78.892181
  endloop
endfacet
facet normal 0.528018 -0.369659 -0.764558
  outer loop
    vertex 79.511719 14.934387 78.892181
    vertex 72.147552 4.371895 78.913254
    vertex 78.047935 34.499065 68.421860
  endloop
endfacet
facet normal 0.975318 -0.128480 0.179577
  outer loop
    vertex 78.047935 34.499065 68.421860
    vertex 72.147552 4.371895 78.913254
    vertex 75.149033 12.759274 68.612442
  endloop
endfacet
facet normal 0.950102 -0.311047 0.023575
  outer loop
    vertex 72.147552 4.371895 78.913254
    vertex 73.067398 6.674709 72.225586
    vertex 75.149033 12.759274 68.612442
  endloop
endfacet
facet normal 0.080455 -0.529135 -0.844715
  outer loop
    vertex 75.149033 12.759274 68.612442
    vertex 73.067398 6.674709 72.225586
    vertex 72.541397 10.508484 69.773987
  endloop
endfacet
facet normal -0.314084 -0.541688 -0.779696
  outer loop
    vertex 70.805344 5.159901 74.189209
    vertex 72.541397 10.508484 69.773987
    vertex 73.067398 6.674709 72.225586
  endloop
endfacet
facet normal 0.336474 -0.892363 -0.300789
  outer loop
    vertex 70.805344 5.159901 74.189209
    vertex 73.067398 6.674709 72.225586
    vertex 69.284027 2.762203 79.600754
  endloop
endfacet
facet normal -0.967575 0.141137 -0.209475
  outer loop
    vertex 69.284027 2.762203 79.600754
    vertex 72.541397 10.508484 69.773987
    vertex 70.805344 5.159901 74.189209
  endloop
endfacet
facet normal -0.889719 -0.165558 -0.425430
  outer loop
    vertex 69.397263 35.390305 66.666595
    vertex 72.541397 10.508484 69.773987
    vertex 69.284027 2.762203 79.600754
  endloop
endfacet
facet normal -0.848714 0.197432 0.490618
  outer loop
    vertex 71.797874 36.988743 70.176147
    vertex 69.397263 35.390305 66.666595
    vertex 69.284027 2.762203 79.600754
  endloop
endfacet
facet normal -0.930399 0.159245 0.330148
  outer loop
    vertex 71.193802 3.626690 84.565758
    vertex 71.797874 36.988743 70.176147
    vertex 69.284027 2.762203 79.600754
  endloop
endfacet
facet normal 0.483578 -0.874651 -0.033716
  outer loop
    vertex 71.193802 3.626690 84.565758
    vertex 69.284027 2.762203 79.600754
    vertex 72.147552 4.371895 78.913254
  endloop
endfacet
facet normal 0.524838 -0.850874 -0.023620
  outer loop
    vertex 71.193802 3.626690 84.565758
    vertex 72.147552 4.371895 78.913254
    vertex 74.851410 5.858002 85.458572
  endloop
endfacet
facet normal -0.424878 0.364998 0.828405
  outer loop
    vertex 74.851410 5.858002 85.458572
    vertex 71.797874 36.988743 70.176147
    vertex 71.193802 3.626690 84.565758
  endloop
endfacet
facet normal -0.920963 -0.160706 -0.354965
  outer loop
    vertex 69.397263 35.390305 66.666595
    vertex 70.949677 32.945320 63.745766
    vertex 72.541397 10.508484 69.773987
  endloop
endfacet
facet normal -0.403101 -0.795797 0.451903
  outer loop
    vertex 70.949677 32.945320 63.745766
    vertex 69.397263 35.390305 66.666595
    vertex 64.142471 37.023853 64.855949
  endloop
endfacet
facet normal -0.409460 -0.763358 0.499626
  outer loop
    vertex 64.142471 37.023853 64.855949
    vertex 69.397263 35.390305 66.666595
    vertex 69.267746 38.123516 70.736412
  endloop
endfacet
facet normal 0.421126 -0.884296 -0.201678
  outer loop
    vertex 64.142471 37.023853 64.855949
    vertex 69.267746 38.123516 70.736412
    vertex 43.236191 21.955364 87.272003
  endloop
endfacet
facet normal 0.515696 -0.851854 -0.091670
  outer loop
    vertex 64.142471 37.023853 64.855949
    vertex 43.236191 21.955364 87.272003
    vertex 40.667591 20.822325 83.351051
  endloop
endfacet
facet normal 0.265531 -0.866730 -0.422222
  outer loop
    vertex 40.667591 20.822325 83.351051
    vertex 40.824059 22.983440 79.013153
    vertex 64.142471 37.023853 64.855949
  endloop
endfacet
facet normal -0.171999 -0.543065 -0.821886
  outer loop
    vertex 64.142471 37.023853 64.855949
    vertex 40.824059 22.983440 79.013153
    vertex 40.861397 25.603268 77.274277
  endloop
endfacet
facet normal -0.360554 -0.243932 -0.900277
  outer loop
    vertex 43.181385 30.919308 74.904747
    vertex 64.142471 37.023853 64.855949
    vertex 40.861397 25.603268 77.274277
  endloop
endfacet
facet normal -0.803997 0.496637 0.327017
  outer loop
    vertex 43.181385 30.919308 74.904747
    vertex 40.861397 25.603268 77.274277
    vertex 47.714493 29.862667 87.654449
  endloop
endfacet
facet normal -0.546106 0.796295 0.260159
  outer loop
    vertex 43.181385 30.919308 74.904747
    vertex 47.714493 29.862667 87.654449
    vertex 53.089706 34.992611 83.235962
  endloop
endfacet
facet normal -0.533096 0.812210 0.236905
  outer loop
    vertex 53.089706 34.992611 83.235962
    vertex 54.940094 39.264515 72.753922
    vertex 43.181385 30.919308 74.904747
  endloop
endfacet
facet normal -0.583490 0.730940 -0.353930
  outer loop
    vertex 62.656361 41.775166 65.217896
    vertex 43.181385 30.919308 74.904747
    vertex 54.940094 39.264515 72.753922
  endloop
endfacet
facet normal -0.468330 0.862391 -0.192223
  outer loop
    vertex 64.863350 44.139805 70.449562
    vertex 62.656361 41.775166 65.217896
    vertex 54.940094 39.264515 72.753922
  endloop
endfacet
facet normal -0.929910 0.068394 0.361371
  outer loop
    vertex 59.600243 45.559841 56.637341
    vertex 62.656361 41.775166 65.217896
    vertex 64.863350 44.139805 70.449562
  endloop
endfacet
facet normal -0.892560 0.261952 0.367039
  outer loop
    vertex 67.687851 54.561726 69.880135
    vertex 59.600243 45.559841 56.637341
    vertex 64.863350 44.139805 70.449562
  endloop
endfacet
facet normal -0.262896 0.123531 0.956883
  outer loop
    vertex 64.863350 44.139805 70.449562
    vertex 68.295914 41.603836 71.720016
    vertex 67.687851 54.561726 69.880135
  endloop
endfacet
facet normal 0.237894 0.672902 0.700435
  outer loop
    vertex 68.295914 41.603836 71.720016
    vertex 64.863350 44.139805 70.449562
    vertex 53.089706 34.992611 83.235962
  endloop
endfacet
facet normal -0.861973 0.459556 0.214036
  outer loop
    vertex 67.687851 54.561726 69.880135
    vertex 62.930988 54.758709 50.300163
    vertex 59.600243 45.559841 56.637341
  endloop
endfacet
facet normal 0.124151 0.532050 0.837561
  outer loop
    vertex 59.600243 45.559841 56.637341
    vertex 62.930988 54.758709 50.300163
    vertex 44.237049 48.761707 56.880661
  endloop
endfacet
facet normal 0.045113 0.141311 0.988937
  outer loop
    vertex 31.077600 40.765785 58.623520
    vertex 59.600243 45.559841 56.637341
    vertex 44.237049 48.761707 56.880661
  endloop
endfacet
facet normal -0.099116 0.364907 0.925753
  outer loop
    vertex 23.925669 54.377361 52.492477
    vertex 31.077600 40.765785 58.623520
    vertex 44.237049 48.761707 56.880661
  endloop
endfacet
facet normal -0.016522 0.577857 0.815971
  outer loop
    vertex 42.173370 56.252659 51.533913
    vertex 23.925669 54.377361 52.492477
    vertex 44.237049 48.761707 56.880661
  endloop
endfacet
facet normal -0.064912 0.875959 0.477999
  outer loop
    vertex 39.433804 61.800117 40.995869
    vertex 23.925669 54.377361 52.492477
    vertex 42.173370 56.252659 51.533913
  endloop
endfacet
facet normal 0.090579 0.890755 0.445365
  outer loop
    vertex 62.930988 54.758709 50.300163
    vertex 39.433804 61.800117 40.995869
    vertex 42.173370 56.252659 51.533913
  endloop
endfacet
facet normal 0.115128 0.910121 0.398027
  outer loop
    vertex 39.433804 61.800117 40.995869
    vertex 62.930988 54.758709 50.300163
    vertex 49.918121 61.880089 37.780457
  endloop
endfacet
facet normal 0.257817 0.455691 0.851984
  outer loop
    vertex 44.657879 67.764015 36.225182
    vertex 39.433804 61.800117 40.995869
    vertex 49.918121 61.880089 37.780457
  endloop
endfacet
facet normal 0.598615 0.656489 0.459002
  outer loop
    vertex 49.918121 61.880089 37.780457
    vertex 48.279907 67.948174 31.238066
    vertex 44.657879 67.764015 36.225182
  endloop
endfacet
facet normal 0.101070 0.988789 0.109918
  outer loop
    vertex 48.279907 67.948174 31.238066
    vertex 38.027279 69.626137 25.570959
    vertex 44.657879 67.764015 36.225182
  endloop
endfacet
facet normal 0.303152 0.911301 -0.278621
  outer loop
    vertex 48.279907 67.948174 31.238066
    vertex 46.175873 63.011253 12.801365
    vertex 38.027279 69.626137 25.570959
  endloop
endfacet
facet normal 0.357136 0.902759 -0.239748
  outer loop
    vertex 36.363861 67.154846 13.787575
    vertex 38.027279 69.626137 25.570959
    vertex 46.175873 63.011253 12.801365
  endloop
endfacet
facet normal 0.354910 0.900354 -0.251796
  outer loop
    vertex 43.012665 63.813484 11.211346
    vertex 36.363861 67.154846 13.787575
    vertex 46.175873 63.011253 12.801365
  endloop
endfacet
facet normal -0.188811 0.672971 0.715165
  outer loop
    vertex 48.559494 66.066238 10.555920
    vertex 43.012665 63.813484 11.211346
    vertex 46.175873 63.011253 12.801365
  endloop
endfacet
facet normal 0.201130 0.473399 0.857578
  outer loop
    vertex 48.559494 66.066238 10.555920
    vertex 46.175873 63.011253 12.801365
    vertex 51.365314 57.296635 14.738847
  endloop
endfacet
facet normal 0.471658 0.498000 0.727691
  outer loop
    vertex 57.058346 60.059296 9.158226
    vertex 48.559494 66.066238 10.555920
    vertex 51.365314 57.296635 14.738847
  endloop
endfacet
facet normal -0.104412 0.929534 0.353646
  outer loop
    vertex 59.105453 59.120712 12.229624
    vertex 57.058346 60.059296 9.158226
    vertex 51.365314 57.296635 14.738847
  endloop
endfacet
facet normal -0.276507 0.946800 -0.164660
  outer loop
    vertex 59.105453 59.120712 12.229624
    vertex 51.365314 57.296635 14.738847
    vertex 52.482460 59.906044 27.867081
  endloop
endfacet
facet normal -0.064409 0.994929 -0.077246
  outer loop
    vertex 59.105453 59.120712 12.229624
    vertex 52.482460 59.906044 27.867081
    vertex 61.329178 60.305069 25.629974
  endloop
endfacet
facet normal 0.702643 0.689047 -0.177500
  outer loop
    vertex 63.472557 56.853512 20.715866
    vertex 59.105453 59.120712 12.229624
    vertex 61.329178 60.305069 25.629974
  endloop
endfacet
facet normal 0.056537 0.828440 -0.557217
  outer loop
    vertex 68.632477 59.966057 25.866961
    vertex 63.472557 56.853512 20.715866
    vertex 61.329178 60.305069 25.629974
  endloop
endfacet
facet normal 0.053782 0.955226 -0.290949
  outer loop
    vertex 61.329178 60.305069 25.629974
    vertex 71.852425 61.631943 31.931490
    vertex 68.632477 59.966057 25.866961
  endloop
endfacet
facet normal 0.534999 0.698117 -0.475825
  outer loop
    vertex 68.632477 59.966057 25.866961
    vertex 71.852425 61.631943 31.931490
    vertex 78.371201 51.869316 24.937490
  endloop
endfacet
facet normal 0.369399 0.531793 -0.762063
  outer loop
    vertex 78.371201 51.869316 24.937490
    vertex 65.441597 50.380230 17.630917
    vertex 68.632477 59.966057 25.866961
  endloop
endfacet
facet normal 0.388853 0.480550 -0.786044
  outer loop
    vertex 78.371201 51.869316 24.937490
    vertex 73.081238 45.762527 18.587170
    vertex 65.441597 50.380230 17.630917
  endloop
endfacet
facet normal 0.300889 0.311114 -0.901484
  outer loop
    vertex 63.892460 46.184303 15.665791
    vertex 65.441597 50.380230 17.630917
    vertex 73.081238 45.762527 18.587170
  endloop
endfacet
facet normal 0.302059 -0.020659 -0.953065
  outer loop
    vertex 67.301208 38.002625 16.923489
    vertex 63.892460 46.184303 15.665791
    vertex 73.081238 45.762527 18.587170
  endloop
endfacet
facet normal 0.560964 -0.248542 -0.789650
  outer loop
    vertex 67.301208 38.002625 16.923489
    vertex 73.081238 45.762527 18.587170
    vertex 80.861176 38.498238 26.400431
  endloop
endfacet
facet normal 0.858991 0.405861 0.312109
  outer loop
    vertex 68.400192 39.574657 11.854614
    vertex 63.892460 46.184303 15.665791
    vertex 67.301208 38.002625 16.923489
  endloop
endfacet
facet normal 0.975251 -0.145777 0.166234
  outer loop
    vertex 68.400192 39.574657 11.854614
    vertex 67.301208 38.002625 16.923489
    vertex 65.772652 32.136024 20.746471
  endloop
endfacet
facet normal 0.940741 -0.339078 -0.005673
  outer loop
    vertex 66.224808 33.565155 10.306438
    vertex 68.400192 39.574657 11.854614
    vertex 65.772652 32.136024 20.746471
  endloop
endfacet
facet normal 0.342451 -0.932734 -0.112850
  outer loop
    vertex 59.230911 30.857481 11.462601
    vertex 66.224808 33.565155 10.306438
    vertex 65.772652 32.136024 20.746471
  endloop
endfacet
facet normal 0.029754 -0.992831 0.115764
  outer loop
    vertex 59.230911 30.857481 11.462601
    vertex 65.772652 32.136024 20.746471
    vertex 53.954041 30.899807 13.181866
  endloop
endfacet
facet normal 0.302496 -0.193938 0.933212
  outer loop
    vertex 51.944992 25.073866 12.622356
    vertex 59.230911 30.857481 11.462601
    vertex 53.954041 30.899807 13.181866
  endloop
endfacet
facet normal 0.939542 -0.310033 -0.145396
  outer loop
    vertex 53.954041 30.899807 13.181866
    vertex 54.533066 29.395933 20.130268
    vertex 51.944992 25.073866 12.622356
  endloop
endfacet
facet normal 0.775906 -0.624130 0.091827
  outer loop
    vertex 51.944992 25.073866 12.622356
    vertex 54.533066 29.395933 20.130268
    vertex 50.441746 23.130688 12.116871
  endloop
endfacet
facet normal 0.365102 -0.488587 0.792454
  outer loop
    vertex 50.441746 23.130688 12.116871
    vertex 55.254032 21.320036 8.783378
    vertex 51.944992 25.073866 12.622356
  endloop
endfacet
facet normal -0.103751 -0.929130 0.354899
  outer loop
    vertex 50.441746 23.130688 12.116871
    vertex 53.372467 20.085007 5.000000
    vertex 55.254032 21.320036 8.783378
  endloop
endfacet
facet normal 0.334831 -0.932152 0.137768
  outer loop
    vertex 53.372467 20.085007 5.000000
    vertex 59.424137 22.258780 5.000000
    vertex 55.254032 21.320036 8.783378
  endloop
endfacet
facet normal 0.654680 -0.444698 0.611260
  outer loop
    vertex 59.424137 22.258780 5.000000
    vertex 59.230911 30.857481 11.462601
    vertex 55.254032 21.320036 8.783378
  endloop
endfacet
facet normal 0.847538 -0.306568 0.433239
  outer loop
    vertex 59.230911 30.857481 11.462601
    vertex 59.424137 22.258780 5.000000
    vertex 62.328362 30.287811 5.000000
  endloop
endfacet
facet normal 0.000000 0.000000 -1.000000
  outer loop
    vertex 53.372467 20.085007 5.000000
    vertex 62.328362 30.287811 5.000000
    vertex 59.424137 22.258780 5.000000
  endloop
endfacet
facet normal -0.000000 0.000000 -1.000000
  outer loop
    vertex 62.328362 30.287811 5.000000
    vertex 53.372467 20.085007 5.000000
    vertex 69.902634 48.339703 5.000000
  endloop
endfacet
facet normal 0.000000 -0.000000 -1.000000
  outer loop
    vertex 69.902634 48.339703 5.000000
    vertex 72.986244 33.571377 5.000000
    vertex 62.328362 30.287811 5.000000
  endloop
endfacet
facet normal 0.275771 -0.895106 0.350337
  outer loop
    vertex 72.986244 33.571377 5.000000
    vertex 66.224808 33.565155 10.306438
    vertex 62.328362 30.287811 5.000000
  endloop
endfacet
facet normal 0.000000 0.000000 -1.000000
  outer loop
    vertex 72.986244 33.571377 5.000000
    vertex 69.902634 48.339703 5.000000
    vertex 76.043617 40.652702 5.000000
  endloop
endfacet
facet normal 0.809958 -0.349701 0.470827
  outer loop
    vertex 72.986244 33.571377 5.000000
    vertex 76.043617 40.652702 5.000000
    vertex 74.317886 41.133106 8.325568
  endloop
endfacet
facet normal 0.544072 -0.416212 0.728528
  outer loop
    vertex 68.400192 39.574657 11.854614
    vertex 72.986244 33.571377 5.000000
    vertex 74.317886 41.133106 8.325568
  endloop
endfacet
facet normal 0.316001 0.550262 0.772887
  outer loop
    vertex 68.400192 39.574657 11.854614
    vertex 74.317886 41.133106 8.325568
    vertex 69.902634 48.339703 5.000000
  endloop
endfacet
facet normal 0.544566 0.456764 0.703430
  outer loop
    vertex 68.400192 39.574657 11.854614
    vertex 69.902634 48.339703 5.000000
    vertex 63.586475 46.148106 11.312799
  endloop
endfacet
facet normal 0.711126 -0.415226 0.567351
  outer loop
    vertex 71.010063 50.271248 5.025569
    vertex 63.586475 46.148106 11.312799
    vertex 69.902634 48.339703 5.000000
  endloop
endfacet
facet normal 0.147134 -0.071298 -0.986544
  outer loop
    vertex 72.655655 54.020939 5.000000
    vertex 71.010063 50.271248 5.025569
    vertex 69.902634 48.339703 5.000000
  endloop
endfacet
facet normal 0.821818 -0.357639 0.443519
  outer loop
    vertex 70.322899 55.011833 10.121498
    vertex 71.010063 50.271248 5.025569
    vertex 72.655655 54.020939 5.000000
  endloop
endfacet
facet normal 0.902832 0.221950 0.368283
  outer loop
    vertex 71.071785 60.463692 5.000000
    vertex 70.322899 55.011833 10.121498
    vertex 72.655655 54.020939 5.000000
  endloop
endfacet
facet normal 0.000000 -0.000000 -1.000000
  outer loop
    vertex 71.071785 60.463692 5.000000
    vertex 72.655655 54.020939 5.000000
    vertex 28.479851 25.117609 5.000000
  endloop
endfacet
facet normal 0.000000 0.000000 -1.000000
  outer loop
    vertex 28.479851 25.117609 5.000000
    vertex 57.312981 60.764053 5.000000
    vertex 71.071785 60.463692 5.000000
  endloop
endfacet
facet normal 0.000000 -0.000000 -1.000000
  outer loop
    vertex 67.194023 63.316803 5.000000
    vertex 71.071785 60.463692 5.000000
    vertex 57.312981 60.764053 5.000000
  endloop
endfacet
facet normal -0.247412 0.957670 0.147160
  outer loop
    vertex 57.312981 60.764053 5.000000
    vertex 57.058346 60.059296 9.158226
    vertex 67.194023 63.316803 5.000000
  endloop
endfacet
facet normal 0.798278 0.583863 0.147840
  outer loop
    vertex 57.312981 60.764053 5.000000
    vertex 53.596527 65.166107 7.682401
    vertex 57.058346 60.059296 9.158226
  endloop
endfacet
facet normal 0.636240 0.714491 -0.291035
  outer loop
    vertex 50.021595 67.256882 5.000000
    vertex 53.596527 65.166107 7.682401
    vertex 57.312981 60.764053 5.000000
  endloop
endfacet
facet normal 0.000000 -0.000000 -1.000000
  outer loop
    vertex 50.021595 67.256882 5.000000
    vertex 57.312981 60.764053 5.000000
    vertex 41.636353 64.841614 5.000000
  endloop
endfacet
facet normal -0.270298 0.938412 0.215223
  outer loop
    vertex 43.012665 63.813484 11.211346
    vertex 50.021595 67.256882 5.000000
    vertex 41.636353 64.841614 5.000000
  endloop
endfacet
facet normal -0.153502 0.968841 0.194380
  outer loop
    vertex 43.012665 63.813484 11.211346
    vertex 41.636353 64.841614 5.000000
    vertex 29.369867 61.964867 9.651629
  endloop
endfacet
facet normal -0.229268 0.973360 -0.002624
  outer loop
    vertex 41.636353 64.841614 5.000000
    vertex 29.939144 62.086418 5.000000
    vertex 29.369867 61.964867 9.651629
  endloop
endfacet
facet normal -0.332485 0.942972 -0.016049
  outer loop
    vertex 23.709501 59.920135 6.776828
    vertex 29.369867 61.964867 9.651629
    vertex 29.939144 62.086418 5.000000
  endloop
endfacet
facet normal -0.348482 0.264605 -0.899191
  outer loop
    vertex 29.939144 62.086418 5.000000
    vertex 16.417381 44.278419 5.000000
    vertex 23.709501 59.920135 6.776828
  endloop
endfacet
facet normal -0.572114 0.350927 -0.741306
  outer loop
    vertex 16.417381 44.278419 5.000000
    vertex 17.807831 52.646427 7.888231
    vertex 23.709501 59.920135 6.776828
  endloop
endfacet
facet normal -0.729242 0.524549 -0.439381
  outer loop
    vertex 23.709501 59.920135 6.776828
    vertex 17.807831 52.646427 7.888231
    vertex 16.383602 54.580708 12.561243
  endloop
endfacet
facet normal 0.110901 0.929765 -0.351053
  outer loop
    vertex 17.807831 52.646427 7.888231
    vertex 11.961304 54.777252 11.684744
    vertex 16.383602 54.580708 12.561243
  endloop
endfacet
facet normal 0.040750 0.999000 0.018414
  outer loop
    vertex 16.383602 54.580708 12.561243
    vertex 11.961304 54.777252 11.684744
    vertex 9.736370 54.764404 17.305651
  endloop
endfacet
facet normal 0.205672 0.945741 0.251542
  outer loop
    vertex 13.035812 53.655731 18.776245
    vertex 16.383602 54.580708 12.561243
    vertex 9.736370 54.764404 17.305651
  endloop
endfacet
facet normal -0.032749 0.761381 0.647477
  outer loop
    vertex 9.736370 54.764404 17.305651
    vertex 9.360184 47.735294 25.552298
    vertex 13.035812 53.655731 18.776245
  endloop
endfacet
facet normal -0.802866 0.590687 0.080591
  outer loop
    vertex 13.035812 53.655731 18.776245
    vertex 9.360184 47.735294 25.552298
    vertex 21.398733 62.508724 37.202202
  endloop
endfacet
facet normal -0.519507 0.838018 -0.166850
  outer loop
    vertex 29.369867 61.964867 9.651629
    vertex 13.035812 53.655731 18.776245
    vertex 21.398733 62.508724 37.202202
  endloop
endfacet
facet normal -0.478662 0.864111 -0.155548
  outer loop
    vertex 38.027279 69.626137 25.570959
    vertex 29.369867 61.964867 9.651629
    vertex 21.398733 62.508724 37.202202
  endloop
endfacet
facet normal -0.061042 0.887866 0.456036
  outer loop
    vertex 21.398733 62.508724 37.202202
    vertex 39.433804 61.800117 40.995869
    vertex 38.027279 69.626137 25.570959
  endloop
endfacet
facet normal -0.840309 0.464995 0.278674
  outer loop
    vertex 18.723942 49.484325 50.869160
    vertex 21.398733 62.508724 37.202202
    vertex 9.360184 47.735294 25.552298
  endloop
endfacet
facet normal -0.934237 0.115036 0.337592
  outer loop
    vertex 16.726883 39.146584 48.865211
    vertex 18.723942 49.484325 50.869160
    vertex 9.360184 47.735294 25.552298
  endloop
endfacet
facet normal -0.958287 -0.069315 0.277275
  outer loop
    vertex 13.510082 30.006569 35.462791
    vertex 16.726883 39.146584 48.865211
    vertex 9.360184 47.735294 25.552298
  endloop
endfacet
facet normal -0.958535 -0.069940 0.276259
  outer loop
    vertex 9.686481 39.272682 24.541975
    vertex 13.510082 30.006569 35.462791
    vertex 9.360184 47.735294 25.552298
  endloop
endfacet
facet normal 0.047537 -0.116603 0.992040
  outer loop
    vertex 9.360184 47.735294 25.552298
    vertex 4.943424 46.863808 25.661507
    vertex 9.686481 39.272682 24.541975
  endloop
endfacet
facet normal -0.206388 -0.267751 0.941124
  outer loop
    vertex 4.943424 46.863808 25.661507
    vertex 3.766273 39.379879 23.274172
    vertex 9.686481 39.272682 24.541975
  endloop
endfacet
facet normal -0.140739 -0.795058 0.589979
  outer loop
    vertex 3.766273 39.379879 23.274172
    vertex 5.823544 35.561882 18.619778
    vertex 9.686481 39.272682 24.541975
  endloop
endfacet
facet normal 0.048099 -0.860227 0.507637
  outer loop
    vertex 16.172100 32.919594 13.161710
    vertex 9.686481 39.272682 24.541975
    vertex 5.823544 35.561882 18.619778
  endloop
endfacet
facet normal -0.285329 -0.955204 -0.078565
  outer loop
    vertex 9.274239 35.071983 12.043985
    vertex 16.172100 32.919594 13.161710
    vertex 5.823544 35.561882 18.619778
  endloop
endfacet
facet normal -0.712793 -0.620033 -0.327850
  outer loop
    vertex 9.274239 35.071983 12.043985
    vertex 5.823544 35.561882 18.619778
    vertex 4.498951 39.999523 13.107132
  endloop
endfacet
facet normal -0.471015 -0.275670 -0.837944
  outer loop
    vertex 4.498951 39.999523 13.107132
    vertex 16.417381 44.278419 5.000000
    vertex 9.274239 35.071983 12.043985
  endloop
endfacet
facet normal -0.551347 -0.042874 -0.833173
  outer loop
    vertex 4.498951 39.999523 13.107132
    vertex 4.423435 48.194000 12.735429
    vertex 16.417381 44.278419 5.000000
  endloop
endfacet
facet normal -0.423560 0.351747 -0.834788
  outer loop
    vertex 16.417381 44.278419 5.000000
    vertex 4.423435 48.194000 12.735429
    vertex 11.961304 54.777252 11.684744
  endloop
endfacet
facet normal -0.945253 -0.023475 -0.325493
  outer loop
    vertex 4.423435 48.194000 12.735429
    vertex 4.498951 39.999523 13.107132
    vertex 2.585022 39.970352 18.667419
  endloop
endfacet
facet normal -0.969261 0.041786 -0.242459
  outer loop
    vertex 1.965389 46.645042 22.294821
    vertex 4.423435 48.194000 12.735429
    vertex 2.585022 39.970352 18.667419
  endloop
endfacet
facet normal -0.953735 -0.207022 0.218019
  outer loop
    vertex 3.766273 39.379879 23.274172
    vertex 1.965389 46.645042 22.294821
    vertex 2.585022 39.970352 18.667419
  endloop
endfacet
facet normal -0.891739 0.423039 -0.160749
  outer loop
    vertex 4.423435 48.194000 12.735429
    vertex 1.965389 46.645042 22.294821
    vertex 4.574379 51.618778 20.910969
  endloop
endfacet
facet normal -0.636880 0.715212 -0.287847
  outer loop
    vertex 9.736370 54.764404 17.305651
    vertex 4.423435 48.194000 12.735429
    vertex 4.574379 51.618778 20.910969
  endloop
endfacet
facet normal -0.663597 0.502330 0.554350
  outer loop
    vertex 4.574379 51.618778 20.910969
    vertex 1.965389 46.645042 22.294821
    vertex 4.943424 46.863808 25.661507
  endloop
endfacet
facet normal -0.777256 -0.568059 -0.270523
  outer loop
    vertex 5.823544 35.561882 18.619778
    vertex 2.585022 39.970352 18.667419
    vertex 4.498951 39.999523 13.107132
  endloop
endfacet
facet normal -0.050119 -0.582073 -0.811590
  outer loop
    vertex 16.417381 44.278419 5.000000
    vertex 16.172100 32.919594 13.161710
    vertex 9.274239 35.071983 12.043985
  endloop
endfacet
facet normal -0.556441 -0.476882 -0.680410
  outer loop
    vertex 16.172100 32.919594 13.161710
    vertex 16.417381 44.278419 5.000000
    vertex 23.750715 35.721661 5.000000
  endloop
endfacet
facet normal -0.610428 -0.377395 -0.696384
  outer loop
    vertex 16.172100 32.919594 13.161710
    vertex 23.750715 35.721661 5.000000
    vertex 22.245890 26.563465 11.282226
  endloop
endfacet
facet normal -0.717660 -0.565681 -0.406164
  outer loop
    vertex 23.144154 23.011156 14.642507
    vertex 16.172100 32.919594 13.161710
    vertex 22.245890 26.563465 11.282226
  endloop
endfacet
facet normal -0.626722 -0.613256 -0.480767
  outer loop
    vertex 23.144154 23.011156 14.642507
    vertex 22.245890 26.563465 11.282226
    vertex 28.479851 25.117609 5.000000
  endloop
endfacet
facet normal -0.098466 -0.959460 -0.264085
  outer loop
    vertex 28.479851 25.117609 5.000000
    vertex 46.984459 21.648335 10.704844
    vertex 23.144154 23.011156 14.642507
  endloop
endfacet
facet normal -0.110782 -0.930699 -0.348607
  outer loop
    vertex 23.144154 23.011156 14.642507
    vertex 46.984459 21.648335 10.704844
    vertex 48.168800 15.740894 26.099979
  endloop
endfacet
facet normal -0.227470 -0.966775 -0.116635
  outer loop
    vertex 44.862045 15.669956 33.137070
    vertex 23.144154 23.011156 14.642507
    vertex 48.168800 15.740894 26.099979
  endloop
endfacet
facet normal 0.401998 -0.897804 0.179850
  outer loop
    vertex 47.998524 17.583435 35.678471
    vertex 44.862045 15.669956 33.137070
    vertex 48.168800 15.740894 26.099979
  endloop
endfacet
facet normal 0.203740 -0.960721 0.188428
  outer loop
    vertex 51.702557 17.168793 29.559361
    vertex 47.998524 17.583435 35.678471
    vertex 48.168800 15.740894 26.099979
  endloop
endfacet
facet normal 0.593941 -0.747157 -0.298313
  outer loop
    vertex 48.168800 15.740894 26.099979
    vertex 50.441746 23.130688 12.116871
    vertex 51.702557 17.168793 29.559361
  endloop
endfacet
facet normal 0.727187 -0.496667 0.473837
  outer loop
    vertex 47.998524 17.583435 35.678471
    vertex 51.702557 17.168793 29.559361
    vertex 50.702709 22.841156 37.039459
  endloop
endfacet
facet normal 0.752283 -0.472656 0.458984
  outer loop
    vertex 51.702557 17.168793 29.559361
    vertex 54.573593 23.466194 31.338671
    vertex 50.702709 22.841156 37.039459
  endloop
endfacet
facet normal 0.505795 -0.824714 0.253017
  outer loop
    vertex 56.449539 31.047863 52.301178
    vertex 50.702709 22.841156 37.039459
    vertex 54.573593 23.466194 31.338671
  endloop
endfacet
facet normal 0.100778 -0.891590 0.441488
  outer loop
    vertex 39.727833 27.627605 49.210968
    vertex 50.702709 22.841156 37.039459
    vertex 56.449539 31.047863 52.301178
  endloop
endfacet
facet normal -0.027116 -0.593913 0.804072
  outer loop
    vertex 31.077600 40.765785 58.623520
    vertex 39.727833 27.627605 49.210968
    vertex 56.449539 31.047863 52.301178
  endloop
endfacet
facet normal -0.015119 -0.588883 0.808077
  outer loop
    vertex 39.727833 27.627605 49.210968
    vertex 31.077600 40.765785 58.623520
    vertex 26.950647 31.032589 51.453281
  endloop
endfacet
facet normal -0.182536 -0.917566 0.353205
  outer loop
    vertex 18.694052 29.566040 43.376419
    vertex 39.727833 27.627605 49.210968
    vertex 26.950647 31.032589 51.453281
  endloop
endfacet
facet normal -0.479329 -0.635428 0.605372
  outer loop
    vertex 21.193062 35.340286 51.416039
    vertex 18.694052 29.566040 43.376419
    vertex 26.950647 31.032589 51.453281
  endloop
endfacet
facet normal -0.701711 -0.457152 0.546455
  outer loop
    vertex 18.694052 29.566040 43.376419
    vertex 21.193062 35.340286 51.416039
    vertex 16.726883 39.146584 48.865211
  endloop
endfacet
facet normal -0.346851 -0.456511 0.819324
  outer loop
    vertex 31.077600 40.765785 58.623520
    vertex 21.193062 35.340286 51.416039
    vertex 26.950647 31.032589 51.453281
  endloop
endfacet
facet normal -0.563747 -0.066582 0.823259
  outer loop
    vertex 31.077600 40.765785 58.623520
    vertex 18.723942 49.484325 50.869160
    vertex 21.193062 35.340286 51.416039
  endloop
endfacet
facet normal -0.154369 -0.958941 0.237912
  outer loop
    vertex 50.702709 22.841156 37.039459
    vertex 39.727833 27.627605 49.210968
    vertex 18.694052 29.566040 43.376419
  endloop
endfacet
facet normal 0.061069 -0.515011 0.855005
  outer loop
    vertex 50.702709 22.841156 37.039459
    vertex 18.694052 29.566040 43.376419
    vertex 44.862045 15.669956 33.137070
  endloop
endfacet
facet normal -0.393932 -0.895245 0.208216
  outer loop
    vertex 44.862045 15.669956 33.137070
    vertex 18.694052 29.566040 43.376419
    vertex 13.510082 30.006569 35.462791
  endloop
endfacet
facet normal 0.912125 -0.360958 -0.194261
  outer loop
    vertex 54.533066 29.395933 20.130268
    vertex 54.573593 23.466194 31.338671
    vertex 51.702557 17.168793 29.559361
  endloop
endfacet
facet normal 0.234364 -0.858954 -0.455272
  outer loop
    vertex 54.533066 29.395933 20.130268
    vertex 65.772652 32.136024 20.746471
    vertex 54.573593 23.466194 31.338671
  endloop
endfacet
facet normal -0.679609 0.164486 0.714896
  outer loop
    vertex 47.998524 17.583435 35.678471
    vertex 50.702709 22.841156 37.039459
    vertex 44.862045 15.669956 33.137070
  endloop
endfacet
facet normal -0.405841 -0.906454 0.116767
  outer loop
    vertex 13.510082 30.006569 35.462791
    vertex 23.144154 23.011156 14.642507
    vertex 44.862045 15.669956 33.137070
  endloop
endfacet
facet normal 0.485450 -0.803095 -0.345510
  outer loop
    vertex 46.984459 21.648335 10.704844
    vertex 50.441746 23.130688 12.116871
    vertex 48.168800 15.740894 26.099979
  endloop
endfacet
facet normal -0.197947 -0.979102 0.046656
  outer loop
    vertex 46.984459 21.648335 10.704844
    vertex 28.479851 25.117609 5.000000
    vertex 53.372467 20.085007 5.000000
  endloop
endfacet
facet normal -0.793573 -0.583952 -0.171004
  outer loop
    vertex 23.144154 23.011156 14.642507
    vertex 13.510082 30.006569 35.462791
    vertex 16.172100 32.919594 13.161710
  endloop
endfacet
facet normal -0.708807 -0.316110 -0.630609
  outer loop
    vertex 22.245890 26.563465 11.282226
    vertex 23.750715 35.721661 5.000000
    vertex 28.479851 25.117609 5.000000
  endloop
endfacet
facet normal 0.001327 0.000592 -0.999999
  outer loop
    vertex 27.105331 39.156422 5.006485
    vertex 28.479851 25.117609 5.000000
    vertex 23.750715 35.721661 5.000000
  endloop
endfacet
facet normal -0.001446 0.000320 -0.999999
  outer loop
    vertex 27.105331 39.156422 5.006485
    vertex 33.896309 49.559036 5.000000
    vertex 28.479851 25.117609 5.000000
  endloop
endfacet
facet normal 0.000235 -0.000776 -1.000000
  outer loop
    vertex 33.896309 49.559036 5.000000
    vertex 27.105331 39.156422 5.006485
    vertex 16.417381 44.278419 5.000000
  endloop
endfacet
facet normal 0.001029 0.000882 -0.999999
  outer loop
    vertex 16.417381 44.278419 5.000000
    vertex 27.105331 39.156422 5.006485
    vertex 23.750715 35.721661 5.000000
  endloop
endfacet
facet normal -0.798472 -0.587966 0.129379
  outer loop
    vertex 3.766273 39.379879 23.274172
    vertex 2.585022 39.970352 18.667419
    vertex 5.823544 35.561882 18.619778
  endloop
endfacet
facet normal -0.742590 -0.094697 0.663018
  outer loop
    vertex 3.766273 39.379879 23.274172
    vertex 4.943424 46.863808 25.661507
    vertex 1.965389 46.645042 22.294821
  endloop
endfacet
facet normal -0.120045 0.696988 0.706964
  outer loop
    vertex 4.574379 51.618778 20.910969
    vertex 4.943424 46.863808 25.661507
    vertex 9.360184 47.735294 25.552298
  endloop
endfacet
facet normal -0.824878 -0.539479 -0.168932
  outer loop
    vertex 13.510082 30.006569 35.462791
    vertex 9.686481 39.272682 24.541975
    vertex 16.172100 32.919594 13.161710
  endloop
endfacet
facet normal -0.765690 -0.430838 0.477596
  outer loop
    vertex 13.510082 30.006569 35.462791
    vertex 18.694052 29.566040 43.376419
    vertex 16.726883 39.146584 48.865211
  endloop
endfacet
facet normal -0.533423 -0.060499 0.843682
  outer loop
    vertex 18.723942 49.484325 50.869160
    vertex 16.726883 39.146584 48.865211
    vertex 21.193062 35.340286 51.416039
  endloop
endfacet
facet normal -0.686766 0.588593 0.426511
  outer loop
    vertex 23.925669 54.377361 52.492477
    vertex 21.398733 62.508724 37.202202
    vertex 18.723942 49.484325 50.869160
  endloop
endfacet
facet normal -0.011059 0.761255 0.648359
  outer loop
    vertex 4.574379 51.618778 20.910969
    vertex 9.360184 47.735294 25.552298
    vertex 9.736370 54.764404 17.305651
  endloop
endfacet
facet normal -0.513993 0.844363 -0.151203
  outer loop
    vertex 29.369867 61.964867 9.651629
    vertex 16.383602 54.580708 12.561243
    vertex 13.035812 53.655731 18.776245
  endloop
endfacet
facet normal -0.655693 0.709608 -0.257922
  outer loop
    vertex 9.736370 54.764404 17.305651
    vertex 11.961304 54.777252 11.684744
    vertex 4.423435 48.194000 12.735429
  endloop
endfacet
facet normal -0.413379 0.357703 -0.837357
  outer loop
    vertex 11.961304 54.777252 11.684744
    vertex 17.807831 52.646427 7.888231
    vertex 16.417381 44.278419 5.000000
  endloop
endfacet
facet normal 0.000000 -0.000000 -1.000000
  outer loop
    vertex 29.939144 62.086418 5.000000
    vertex 33.896309 49.559036 5.000000
    vertex 16.417381 44.278419 5.000000
  endloop
endfacet
facet normal 0.000000 0.000000 -1.000000
  outer loop
    vertex 29.939144 62.086418 5.000000
    vertex 57.312981 60.764053 5.000000
    vertex 33.896309 49.559036 5.000000
  endloop
endfacet
facet normal -0.437114 0.865344 0.245175
  outer loop
    vertex 29.369867 61.964867 9.651629
    vertex 23.709501 59.920135 6.776828
    vertex 16.383602 54.580708 12.561243
  endloop
endfacet
facet normal 0.000000 0.000000 -1.000000
  outer loop
    vertex 57.312981 60.764053 5.000000
    vertex 29.939144 62.086418 5.000000
    vertex 41.636353 64.841614 5.000000
  endloop
endfacet
facet normal 0.320612 0.905375 0.278396
  outer loop
    vertex 50.021595 67.256882 5.000000
    vertex 48.559494 66.066238 10.555920
    vertex 53.596527 65.166107 7.682401
  endloop
endfacet
facet normal 0.575393 0.782037 0.239460
  outer loop
    vertex 67.194023 63.316803 5.000000
    vertex 68.767891 60.595131 10.106712
    vertex 71.071785 60.463692 5.000000
  endloop
endfacet
facet normal -0.228024 0.828327 0.511741
  outer loop
    vertex 63.334511 57.567905 12.585688
    vertex 68.767891 60.595131 10.106712
    vertex 67.194023 63.316803 5.000000
  endloop
endfacet
facet normal 0.210756 0.724480 0.656285
  outer loop
    vertex 63.334511 57.567905 12.585688
    vertex 67.194023 63.316803 5.000000
    vertex 59.105453 59.120712 12.229624
  endloop
endfacet
facet normal 0.364336 0.103922 0.925451
  outer loop
    vertex 63.334511 57.567905 12.585688
    vertex 70.322899 55.011833 10.121498
    vertex 68.767891 60.595131 10.106712
  endloop
endfacet
facet normal 0.402294 0.251144 0.880389
  outer loop
    vertex 63.334511 57.567905 12.585688
    vertex 64.890778 53.474674 13.042207
    vertex 70.322899 55.011833 10.121498
  endloop
endfacet
facet normal 0.934032 0.356852 0.015497
  outer loop
    vertex 64.890778 53.474674 13.042207
    vertex 63.334511 57.567905 12.585688
    vertex 63.472557 56.853512 20.715866
  endloop
endfacet
facet normal 0.962721 0.263296 0.061993
  outer loop
    vertex 65.441597 50.380230 17.630917
    vertex 64.890778 53.474674 13.042207
    vertex 63.472557 56.853512 20.715866
  endloop
endfacet
facet normal 0.000000 -0.000000 -1.000000
  outer loop
    vertex 33.896309 49.559036 5.000000
    vertex 57.312981 60.764053 5.000000
    vertex 28.479851 25.117609 5.000000
  endloop
endfacet
facet normal 0.000000 0.000000 -1.000000
  outer loop
    vertex 72.655655 54.020939 5.000000
    vertex 53.372467 20.085007 5.000000
    vertex 28.479851 25.117609 5.000000
  endloop
endfacet
facet normal 0.885505 0.247664 0.393121
  outer loop
    vertex 71.071785 60.463692 5.000000
    vertex 68.767891 60.595131 10.106712
    vertex 70.322899 55.011833 10.121498
  endloop
endfacet
facet normal 0.504325 -0.597275 0.623633
  outer loop
    vertex 71.010063 50.271248 5.025569
    vertex 70.322899 55.011833 10.121498
    vertex 64.890778 53.474674 13.042207
  endloop
endfacet
facet normal 0.706164 -0.279294 0.650636
  outer loop
    vertex 63.586475 46.148106 11.312799
    vertex 71.010063 50.271248 5.025569
    vertex 64.890778 53.474674 13.042207
  endloop
endfacet
facet normal 0.984891 -0.159305 -0.067906
  outer loop
    vertex 63.892460 46.184303 15.665791
    vertex 63.586475 46.148106 11.312799
    vertex 64.890778 53.474674 13.042207
  endloop
endfacet
facet normal 0.745141 0.595277 0.300682
  outer loop
    vertex 74.317886 41.133106 8.325568
    vertex 76.043617 40.652702 5.000000
    vertex 69.902634 48.339703 5.000000
  endloop
endfacet
facet normal 0.000000 0.000000 -1.000000
  outer loop
    vertex 53.372467 20.085007 5.000000
    vertex 72.655655 54.020939 5.000000
    vertex 69.902634 48.339703 5.000000
  endloop
endfacet
facet normal 0.189588 -0.872023 0.451256
  outer loop
    vertex 50.441746 23.130688 12.116871
    vertex 46.984459 21.648335 10.704844
    vertex 53.372467 20.085007 5.000000
  endloop
endfacet
facet normal 0.915005 -0.356895 -0.188128
  outer loop
    vertex 54.533066 29.395933 20.130268
    vertex 51.702557 17.168793 29.559361
    vertex 50.441746 23.130688 12.116871
  endloop
endfacet
facet normal 0.452209 -0.410935 0.791606
  outer loop
    vertex 59.230911 30.857481 11.462601
    vertex 51.944992 25.073866 12.622356
    vertex 55.254032 21.320036 8.783378
  endloop
endfacet
facet normal 0.242407 -0.943847 -0.224481
  outer loop
    vertex 53.954041 30.899807 13.181866
    vertex 65.772652 32.136024 20.746471
    vertex 54.533066 29.395933 20.130268
  endloop
endfacet
facet normal 0.385822 -0.884330 0.262873
  outer loop
    vertex 66.224808 33.565155 10.306438
    vertex 59.230911 30.857481 11.462601
    vertex 62.328362 30.287811 5.000000
  endloop
endfacet
facet normal 0.568175 -0.392065 0.723507
  outer loop
    vertex 68.400192 39.574657 11.854614
    vertex 66.224808 33.565155 10.306438
    vertex 72.986244 33.571377 5.000000
  endloop
endfacet
facet normal 0.293539 -0.574421 -0.764117
  outer loop
    vertex 71.423851 28.302773 25.799030
    vertex 65.772652 32.136024 20.746471
    vertex 67.301208 38.002625 16.923489
  endloop
endfacet
facet normal 0.807684 0.586383 -0.061651
  outer loop
    vertex 63.586475 46.148106 11.312799
    vertex 63.892460 46.184303 15.665791
    vertex 68.400192 39.574657 11.854614
  endloop
endfacet
facet normal 0.938554 -0.223243 -0.263208
  outer loop
    vertex 65.441597 50.380230 17.630917
    vertex 63.892460 46.184303 15.665791
    vertex 64.890778 53.474674 13.042207
  endloop
endfacet
facet normal 0.736010 0.063317 -0.674003
  outer loop
    vertex 73.081238 45.762527 18.587170
    vertex 78.371201 51.869316 24.937490
    vertex 80.861176 38.498238 26.400431
  endloop
endfacet
facet normal 0.693729 0.663668 -0.279794
  outer loop
    vertex 71.852425 61.631943 31.931490
    vertex 84.643982 49.544834 34.976780
    vertex 78.371201 51.869316 24.937490
  endloop
endfacet
facet normal 0.693046 0.718427 -0.059576
  outer loop
    vertex 77.070282 57.648418 44.593330
    vertex 84.643982 49.544834 34.976780
    vertex 71.852425 61.631943 31.931490
  endloop
endfacet
facet normal 0.161969 0.958456 0.234792
  outer loop
    vertex 71.714180 58.098499 46.450890
    vertex 77.070282 57.648418 44.593330
    vertex 71.852425 61.631943 31.931490
  endloop
endfacet
facet normal -0.258062 0.939292 0.226129
  outer loop
    vertex 71.714180 58.098499 46.450890
    vertex 71.852425 61.631943 31.931490
    vertex 62.930988 54.758709 50.300163
  endloop
endfacet
facet normal -0.499193 0.486064 -0.717320
  outer loop
    vertex 71.714180 58.098499 46.450890
    vertex 62.930988 54.758709 50.300163
    vertex 72.862778 65.991844 51.000183
  endloop
endfacet
facet normal -0.728471 0.418575 -0.542333
  outer loop
    vertex 72.862778 65.991844 51.000183
    vertex 74.456070 65.203491 48.251595
    vertex 71.714180 58.098499 46.450890
  endloop
endfacet
facet normal 0.116264 0.970552 -0.210979
  outer loop
    vertex 74.456070 65.203491 48.251595
    vertex 72.862778 65.991844 51.000183
    vertex 79.694847 66.582794 57.483650
  endloop
endfacet
facet normal 0.245980 0.928463 -0.278298
  outer loop
    vertex 84.390411 62.684105 48.627068
    vertex 74.456070 65.203491 48.251595
    vertex 79.694847 66.582794 57.483650
  endloop
endfacet
facet normal 0.620576 0.783981 -0.016094
  outer loop
    vertex 83.475121 63.594727 57.692440
    vertex 84.390411 62.684105 48.627068
    vertex 79.694847 66.582794 57.483650
  endloop
endfacet
facet normal 0.466502 0.633328 0.617472
  outer loop
    vertex 83.475121 63.594727 57.692440
    vertex 79.694847 66.582794 57.483650
    vertex 78.341576 55.971375 69.389961
  endloop
endfacet
facet normal 0.681011 0.439803 0.585489
  outer loop
    vertex 83.475121 63.594727 57.692440
    vertex 78.341576 55.971375 69.389961
    vertex 85.780411 45.606819 68.523056
  endloop
endfacet
facet normal 0.894159 0.309442 0.323612
  outer loop
    vertex 85.780411 45.606819 68.523056
    vertex 86.918381 60.663361 50.981529
    vertex 83.475121 63.594727 57.692440
  endloop
endfacet
facet normal -0.068717 0.748638 0.659408
  outer loop
    vertex 67.687851 54.561726 69.880135
    vertex 78.341576 55.971375 69.389961
    vertex 79.694847 66.582794 57.483650
  endloop
endfacet
facet normal 0.024121 0.160798 0.986692
  outer loop
    vertex 81.496643 48.265877 70.568573
    vertex 78.341576 55.971375 69.389961
    vertex 67.687851 54.561726 69.880135
  endloop
endfacet
facet normal 0.632238 0.774648 -0.013979
  outer loop
    vertex 86.918381 60.663361 50.981529
    vertex 84.390411 62.684105 48.627068
    vertex 83.475121 63.594727 57.692440
  endloop
endfacet
facet normal 0.720420 0.101960 -0.686002
  outer loop
    vertex 86.918381 60.663361 50.981529
    vertex 83.530746 47.283424 45.435280
    vertex 84.390411 62.684105 48.627068
  endloop
endfacet
facet normal 0.385513 0.166569 -0.907543
  outer loop
    vertex 83.530746 47.283424 45.435280
    vertex 77.070282 57.648418 44.593330
    vertex 84.390411 62.684105 48.627068
  endloop
endfacet
facet normal 0.152754 0.473013 -0.867712
  outer loop
    vertex 77.070282 57.648418 44.593330
    vertex 74.456070 65.203491 48.251595
    vertex 84.390411 62.684105 48.627068
  endloop
endfacet
facet normal -0.429994 0.819707 0.378399
  outer loop
    vertex 67.687851 54.561726 69.880135
    vertex 79.694847 66.582794 57.483650
    vertex 72.862778 65.991844 51.000183
  endloop
endfacet
facet normal -0.283125 0.336848 -0.897983
  outer loop
    vertex 71.714180 58.098499 46.450890
    vertex 74.456070 65.203491 48.251595
    vertex 77.070282 57.648418 44.593330
  endloop
endfacet
facet normal -0.030623 0.987168 -0.156723
  outer loop
    vertex 71.852425 61.631943 31.931490
    vertex 61.329178 60.305069 25.629974
    vertex 49.918121 61.880089 37.780457
  endloop
endfacet
facet normal 0.448249 0.492018 -0.746318
  outer loop
    vertex 63.472557 56.853512 20.715866
    vertex 68.632477 59.966057 25.866961
    vertex 65.441597 50.380230 17.630917
  endloop
endfacet
facet normal 0.337965 0.938029 0.076686
  outer loop
    vertex 63.472557 56.853512 20.715866
    vertex 63.334511 57.567905 12.585688
    vertex 59.105453 59.120712 12.229624
  endloop
endfacet
facet normal -0.099146 0.970688 -0.218939
  outer loop
    vertex 52.482460 59.906044 27.867081
    vertex 49.918121 61.880089 37.780457
    vertex 61.329178 60.305069 25.629974
  endloop
endfacet
facet normal -0.141089 0.916580 0.374133
  outer loop
    vertex 67.194023 63.316803 5.000000
    vertex 57.058346 60.059296 9.158226
    vertex 59.105453 59.120712 12.229624
  endloop
endfacet
facet normal 0.489388 0.531541 0.691349
  outer loop
    vertex 57.058346 60.059296 9.158226
    vertex 53.596527 65.166107 7.682401
    vertex 48.559494 66.066238 10.555920
  endloop
endfacet
facet normal 0.757998 0.624392 -0.188608
  outer loop
    vertex 52.482460 59.906044 27.867081
    vertex 51.365314 57.296635 14.738847
    vertex 46.175873 63.011253 12.801365
  endloop
endfacet
facet normal -0.363862 0.925780 0.102642
  outer loop
    vertex 48.559494 66.066238 10.555920
    vertex 50.021595 67.256882 5.000000
    vertex 43.012665 63.813484 11.211346
  endloop
endfacet
facet normal 0.006099 0.618169 -0.786022
  outer loop
    vertex 36.363861 67.154846 13.787575
    vertex 43.012665 63.813484 11.211346
    vertex 29.369867 61.964867 9.651629
  endloop
endfacet
facet normal -0.556588 0.825392 -0.094535
  outer loop
    vertex 38.027279 69.626137 25.570959
    vertex 36.363861 67.154846 13.787575
    vertex 29.369867 61.964867 9.651629
  endloop
endfacet
facet normal 0.817935 0.525541 -0.234072
  outer loop
    vertex 46.175873 63.011253 12.801365
    vertex 48.279907 67.948174 31.238066
    vertex 52.482460 59.906044 27.867081
  endloop
endfacet
facet normal 0.900707 0.406989 0.151946
  outer loop
    vertex 48.279907 67.948174 31.238066
    vertex 49.918121 61.880089 37.780457
    vertex 52.482460 59.906044 27.867081
  endloop
endfacet
facet normal -0.478733 0.764568 0.431567
  outer loop
    vertex 38.027279 69.626137 25.570959
    vertex 39.433804 61.800117 40.995869
    vertex 44.657879 67.764015 36.225182
  endloop
endfacet
facet normal 0.116185 0.910398 0.397085
  outer loop
    vertex 71.852425 61.631943 31.931490
    vertex 49.918121 61.880089 37.780457
    vertex 62.930988 54.758709 50.300163
  endloop
endfacet
facet normal -0.065897 0.876440 0.476981
  outer loop
    vertex 39.433804 61.800117 40.995869
    vertex 21.398733 62.508724 37.202202
    vertex 23.925669 54.377361 52.492477
  endloop
endfacet
facet normal -0.435360 0.169498 0.884156
  outer loop
    vertex 31.077600 40.765785 58.623520
    vertex 23.925669 54.377361 52.492477
    vertex 18.723942 49.484325 50.869160
  endloop
endfacet
facet normal 0.117458 -0.307635 0.944227
  outer loop
    vertex 31.077600 40.765785 58.623520
    vertex 56.449539 31.047863 52.301178
    vertex 59.600243 45.559841 56.637341
  endloop
endfacet
facet normal 0.090289 0.594942 0.798682
  outer loop
    vertex 62.930988 54.758709 50.300163
    vertex 42.173370 56.252659 51.533913
    vertex 44.237049 48.761707 56.880661
  endloop
endfacet
facet normal -0.741743 0.644179 0.186684
  outer loop
    vertex 62.930988 54.758709 50.300163
    vertex 67.687851 54.561726 69.880135
    vertex 72.862778 65.991844 51.000183
  endloop
endfacet
facet normal -0.924744 -0.334300 0.181913
  outer loop
    vertex 62.656361 41.775166 65.217896
    vertex 59.600243 45.559841 56.637341
    vertex 63.381554 35.268406 56.946953
  endloop
endfacet
facet normal -0.938891 -0.305716 0.158185
  outer loop
    vertex 63.381554 35.268406 56.946953
    vertex 64.142471 37.023853 64.855949
    vertex 62.656361 41.775166 65.217896
  endloop
endfacet
facet normal -0.365162 0.882854 0.295341
  outer loop
    vertex 64.863350 44.139805 70.449562
    vertex 54.940094 39.264515 72.753922
    vertex 53.089706 34.992611 83.235962
  endloop
endfacet
facet normal 0.604308 0.051609 0.795077
  outer loop
    vertex 47.714493 29.862667 87.654449
    vertex 69.267746 38.123516 70.736412
    vertex 53.089706 34.992611 83.235962
  endloop
endfacet
facet normal 0.650830 -0.195789 0.733544
  outer loop
    vertex 69.267746 38.123516 70.736412
    vertex 47.714493 29.862667 87.654449
    vertex 44.928177 25.380032 88.930130
  endloop
endfacet
facet normal -0.824932 0.549933 0.130620
  outer loop
    vertex 47.714493 29.862667 87.654449
    vertex 42.806305 22.592512 87.265373
    vertex 44.928177 25.380032 88.930130
  endloop
endfacet
facet normal -0.377772 -0.245594 0.892733
  outer loop
    vertex 42.806305 22.592512 87.265373
    vertex 43.236191 21.955364 87.272003
    vertex 44.928177 25.380032 88.930130
  endloop
endfacet
facet normal -0.541836 -0.357664 0.760586
  outer loop
    vertex 41.672905 21.232372 85.818344
    vertex 43.236191 21.955364 87.272003
    vertex 42.806305 22.592512 87.265373
  endloop
endfacet
facet normal -0.863016 0.419154 0.281981
  outer loop
    vertex 40.667591 20.822325 83.351051
    vertex 41.672905 21.232372 85.818344
    vertex 42.806305 22.592512 87.265373
  endloop
endfacet
facet normal -0.816732 0.540589 0.201775
  outer loop
    vertex 47.714493 29.862667 87.654449
    vertex 40.667591 20.822325 83.351051
    vertex 42.806305 22.592512 87.265373
  endloop
endfacet
facet normal -0.812937 0.470001 0.343849
  outer loop
    vertex 40.861397 25.603268 77.274277
    vertex 40.667591 20.822325 83.351051
    vertex 47.714493 29.862667 87.654449
  endloop
endfacet
facet normal -0.416904 -0.061314 -0.906880
  outer loop
    vertex 43.181385 30.919308 74.904747
    vertex 62.656361 41.775166 65.217896
    vertex 64.142471 37.023853 64.855949
  endloop
endfacet
facet normal -0.998960 -0.014460 -0.043236
  outer loop
    vertex 40.667591 20.822325 83.351051
    vertex 40.861397 25.603268 77.274277
    vertex 40.824059 22.983440 79.013153
  endloop
endfacet
facet normal 0.443965 -0.895470 -0.032075
  outer loop
    vertex 40.667591 20.822325 83.351051
    vertex 43.236191 21.955364 87.272003
    vertex 41.672905 21.232372 85.818344
  endloop
endfacet
facet normal 0.662928 -0.565233 0.490957
  outer loop
    vertex 43.236191 21.955364 87.272003
    vertex 69.267746 38.123516 70.736412
    vertex 44.928177 25.380032 88.930130
  endloop
endfacet
facet normal 0.431228 -0.869694 -0.240156
  outer loop
    vertex 69.284027 2.762203 79.600754
    vertex 73.067398 6.674709 72.225586
    vertex 72.147552 4.371895 78.913254
  endloop
endfacet
facet normal 0.630443 -0.771540 -0.085257
  outer loop
    vertex 74.851410 5.858002 85.458572
    vertex 72.147552 4.371895 78.913254
    vertex 78.159668 8.707561 84.134552
  endloop
endfacet
facet normal -0.018742 0.439115 0.898235
  outer loop
    vertex 78.159668 8.707561 84.134552
    vertex 71.797874 36.988743 70.176147
    vertex 74.851410 5.858002 85.458572
  endloop
endfacet
facet normal -0.244138 -0.808620 0.535285
  outer loop
    vertex 69.267746 38.123516 70.736412
    vertex 69.397263 35.390305 66.666595
    vertex 71.797874 36.988743 70.176147
  endloop
endfacet
facet normal 0.616659 -0.049846 0.785650
  outer loop
    vertex 69.267746 38.123516 70.736412
    vertex 68.295914 41.603836 71.720016
    vertex 53.089706 34.992611 83.235962
  endloop
endfacet
facet normal 0.015053 0.141256 0.989859
  outer loop
    vertex 68.295914 41.603836 71.720016
    vertex 81.496643 48.265877 70.568573
    vertex 67.687851 54.561726 69.880135
  endloop
endfacet
facet normal 0.570908 0.347536 0.743830
  outer loop
    vertex 78.341576 55.971375 69.389961
    vertex 81.496643 48.265877 70.568573
    vertex 85.780411 45.606819 68.523056
  endloop
endfacet
facet normal 0.991083 0.112425 0.071520
  outer loop
    vertex 79.511719 14.934387 78.892181
    vertex 78.047935 34.499065 68.421860
    vertex 77.511009 37.688404 70.848839
  endloop
endfacet
facet normal 0.996844 -0.079313 -0.003409
  outer loop
    vertex 85.314774 40.616714 48.460880
    vertex 86.918381 60.663361 50.981529
    vertex 85.780411 45.606819 68.523056
  endloop
endfacet
facet normal 0.857584 -0.003930 -0.514329
  outer loop
    vertex 83.530746 47.283424 45.435280
    vertex 86.918381 60.663361 50.981529
    vertex 85.314774 40.616714 48.460880
  endloop
endfacet
facet normal 0.823654 0.529808 0.202231
  outer loop
    vertex 77.070282 57.648418 44.593330
    vertex 83.530746 47.283424 45.435280
    vertex 84.643982 49.544834 34.976780
  endloop
endfacet
facet normal 0.854101 0.103279 -0.509749
  outer loop
    vertex 80.861176 38.498238 26.400431
    vertex 78.371201 51.869316 24.937490
    vertex 84.643982 49.544834 34.976780
  endloop
endfacet
facet normal 0.813472 -0.569575 0.117673
  outer loop
    vertex 82.946297 40.313576 46.000217
    vertex 76.999832 28.932632 32.020668
    vertex 84.622131 40.163963 33.691017
  endloop
endfacet
facet normal 0.524501 -0.442596 -0.727329
  outer loop
    vertex 71.423851 28.302773 25.799030
    vertex 67.301208 38.002625 16.923489
    vertex 80.861176 38.498238 26.400431
  endloop
endfacet
facet normal 0.021580 -0.784715 -0.619481
  outer loop
    vertex 54.573593 23.466194 31.338671
    vertex 65.772652 32.136024 20.746471
    vertex 71.423851 28.302773 25.799030
  endloop
endfacet
facet normal 0.783452 -0.601451 0.156394
  outer loop
    vertex 82.946297 40.313576 46.000217
    vertex 77.597305 34.037582 48.660000
    vertex 76.999832 28.932632 32.020668
  endloop
endfacet
facet normal -0.051779 -0.937631 0.343754
  outer loop
    vertex 56.449539 31.047863 52.301178
    vertex 54.573593 23.466194 31.338671
    vertex 67.665939 26.813101 42.439838
  endloop
endfacet
facet normal -0.484646 -0.152156 0.861375
  outer loop
    vertex 56.449539 31.047863 52.301178
    vertex 63.381554 35.268406 56.946953
    vertex 59.600243 45.559841 56.637341
  endloop
endfacet
facet normal -0.471304 -0.850340 0.234082
  outer loop
    vertex 70.949677 32.945320 63.745766
    vertex 64.142471 37.023853 64.855949
    vertex 63.381554 35.268406 56.946953
  endloop
endfacet
facet normal 0.305880 -0.950902 -0.047135
  outer loop
    vertex 77.597305 34.037582 48.660000
    vertex 82.989799 35.600483 52.124329
    vertex 76.172287 32.819824 63.979397
  endloop
endfacet
facet normal -0.190080 -0.267297 -0.944681
  outer loop
    vertex 75.149033 12.759274 68.612442
    vertex 72.541397 10.508484 69.773987
    vertex 70.949677 32.945320 63.745766
  endloop
endfacet
facet normal 0.930088 -0.127045 -0.344669
  outer loop
    vertex 76.172287 32.819824 63.979397
    vertex 78.047935 34.499065 68.421860
    vertex 75.149033 12.759274 68.612442
  endloop
endfacet
endsolid stanford_bunny.stl
